<svg width="63" height="63" viewBox="0 0 63 63" fill="none" xmlns="http://www.w3.org/2000/svg">
<path d="M52.1719 18.7031H7.875C7.09178 18.7031 6.34064 19.0143 5.78683 19.5681C5.23301 20.1219 4.92188 20.873 4.92188 21.6562V33.4688C4.93108 39.6757 7.27966 45.6511 11.4992 50.2031H7.875C7.09178 50.2031 6.34064 50.5143 5.78683 51.0681C5.23301 51.6219 4.92188 52.373 4.92188 53.1562C4.92188 53.9395 5.23301 54.6906 5.78683 55.2444C6.34064 55.7982 7.09178 56.1094 7.875 56.1094H38.5174C38.5334 56.1096 38.5494 56.1111 38.5654 56.1111C38.5762 56.1111 38.587 56.1094 38.5978 56.1094H51.1875C51.9707 56.1094 52.7219 55.7982 53.2757 55.2444C53.8295 54.6906 54.1406 53.9395 54.1406 53.1562C54.1406 52.373 53.8295 51.6219 53.2757 51.0681C52.7219 50.5143 51.9707 50.2031 51.1875 50.2031H47.5633C49.6847 47.9089 51.3532 45.2343 52.481 42.3203C55.2966 42.2372 57.9693 41.0612 59.9328 39.0414C61.8964 37.0217 62.9964 34.3169 63 31.5V29.5312C62.9967 26.6605 61.8549 23.9082 59.8249 21.8782C57.795 19.8482 55.0427 18.7064 52.1719 18.7031ZM21.1702 50.2031C18.0669 48.6437 15.4571 46.2538 13.6312 43.2994C11.8053 40.345 10.8349 36.9419 10.8281 33.4688V24.6094H48.2344V33.4688C48.2333 35.1576 48.0022 36.8385 47.5473 38.4649C47.5298 38.5193 47.5158 38.5757 47.501 38.6316C46.7832 41.1183 45.5591 43.4298 43.9056 45.4211C42.2522 47.4124 40.205 49.0405 37.8925 50.2031H21.1702ZM57.0938 31.5C57.0923 32.4826 56.7971 33.4424 56.246 34.256C55.6949 35.0695 54.9131 35.6997 54.0011 36.0655C54.0937 35.203 54.1402 34.3362 54.1406 33.4688V25.0233C55.0175 25.4067 55.7637 26.0372 56.2882 26.8377C56.8126 27.6383 57.0925 28.5742 57.0938 29.5312V31.5ZM16.7344 11.8125V5.90625C16.7344 5.12303 17.0455 4.37189 17.5993 3.81808C18.1531 3.26426 18.9043 2.95313 19.6875 2.95312C20.4707 2.95313 21.2219 3.26426 21.7757 3.81808C22.3295 4.37189 22.6406 5.12303 22.6406 5.90625V11.8125C22.6406 12.5957 22.3295 13.3469 21.7757 13.9007C21.2219 14.4545 20.4707 14.7656 19.6875 14.7656C18.9043 14.7656 18.1531 14.4545 17.5993 13.9007C17.0455 13.3469 16.7344 12.5957 16.7344 11.8125ZM26.5781 11.8125V5.90625C26.5781 5.12303 26.8893 4.37189 27.4431 3.81808C27.9969 3.26426 28.748 2.95313 29.5312 2.95312C30.3145 2.95313 31.0656 3.26426 31.6194 3.81808C32.1732 4.37189 32.4844 5.12303 32.4844 5.90625V11.8125C32.4844 12.5957 32.1732 13.3469 31.6194 13.9007C31.0656 14.4545 30.3145 14.7656 29.5312 14.7656C28.748 14.7656 27.9969 14.4545 27.4431 13.9007C26.8893 13.3469 26.5781 12.5957 26.5781 11.8125ZM36.4219 11.8125V5.90625C36.4219 5.12303 36.733 4.37189 37.2868 3.81808C37.8406 3.26426 38.5918 2.95313 39.375 2.95312C40.1582 2.95313 40.9094 3.26426 41.4632 3.81808C42.017 4.37189 42.3281 5.12303 42.3281 5.90625V11.8125C42.3281 12.5957 42.017 13.3469 41.4632 13.9007C40.9094 14.4545 40.1582 14.7656 39.375 14.7656C38.5918 14.7656 37.8406 14.4545 37.2868 13.9007C36.733 13.3469 36.4219 12.5957 36.4219 11.8125Z" fill="#D68282"/>
</svg>
