<svg width="25" height="25" viewBox="0 0 25 25" fill="none" xmlns="http://www.w3.org/2000/svg">
<g clip-path="url(#clip0)">
<path d="M12.1693 0.941406C5.44577 0.941406 0 6.2959 0 12.8998C0 18.1843 3.48651 22.6657 8.32077 24.2456C8.92923 24.3582 9.15234 23.9881 9.15234 23.6706C9.15234 23.3867 9.1422 22.6342 9.13713 21.6374C5.75203 22.3584 5.0381 20.033 5.0381 20.033C4.48439 18.6528 3.68426 18.2837 3.68426 18.2837C2.58192 17.5424 3.76944 17.5576 3.76944 17.5576C4.99145 17.6407 5.63338 18.7897 5.63338 18.7897C6.71847 20.6182 8.48201 20.0898 9.17769 19.7846C9.28721 19.0108 9.60057 18.4845 9.94841 18.1853C7.24581 17.8862 4.40529 16.8579 4.40529 12.2761C4.40529 10.9709 4.87685 9.90411 5.65772 9.06747C5.52081 8.76526 5.1101 7.54934 5.7642 5.90243C5.7642 5.90243 6.78338 5.58197 9.11076 7.12849C10.0843 6.86279 11.1187 6.73096 12.1531 6.72487C13.1875 6.73096 14.2219 6.86279 15.1954 7.12849C17.5076 5.58197 18.5268 5.90243 18.5268 5.90243C19.1809 7.54934 18.7702 8.76526 18.6485 9.06747C19.4243 9.90411 19.8958 10.9709 19.8958 12.2761C19.8958 16.87 17.0512 17.8811 14.3436 18.1752C14.7695 18.5342 15.165 19.2674 15.165 20.388C15.165 21.9882 15.1498 23.2741 15.1498 23.6625C15.1498 23.9759 15.3627 24.3501 15.9864 24.2304C20.8552 22.6606 24.3386 18.1762 24.3386 12.8998C24.3386 6.2959 18.8898 0.941406 12.1693 0.941406V0.941406Z" fill="#fdb196"/>
</g>
<defs>
<clipPath id="clip0">
<rect width="24.3386" height="24.3386" fill="white" transform="translate(0 0.434082)"/>
</clipPath>
</defs>
</svg>
