<svg width="42" height="32" viewBox="0 0 42 32" fill="none" xmlns="http://www.w3.org/2000/svg">
<path d="M11.2368 0.223997C13.3168 0.223997 15.0768 0.575997 16.5168 1.28C17.9888 1.984 18.7248 2.88 18.7248 3.968C18.7248 4.448 18.5968 4.864 18.3408 5.216C18.1168 5.568 17.7648 5.744 17.2848 5.744C16.8368 5.744 15.8448 5.392 14.3088 4.688C12.7728 3.952 11.3648 3.584 10.0848 3.584C8.83675 3.584 7.54075 3.984 6.19675 4.784C4.85275 5.584 4.18075 6.56 4.18075 7.712C4.18075 9.28 4.99675 10.432 6.62875 11.168C7.84475 11.712 9.58875 12.208 11.8608 12.656C14.1328 13.072 15.9888 13.952 17.4288 15.296C18.8688 16.608 19.5888 18.608 19.5888 21.296C19.5888 25.392 18.3568 28.416 15.8928 30.368C14.5168 31.456 12.5648 32 10.0368 32C7.54075 32 5.04475 31.312 2.54875 29.936C0.91675 29.072 0.10075 28.208 0.10075 27.344C0.10075 27.024 0.22875 26.672 0.48475 26.288C0.77275 25.904 1.15675 25.584 1.63675 25.328C2.11675 25.072 2.54875 25.04 2.93275 25.232C3.34875 25.392 4.00475 25.696 4.90075 26.144C5.79675 26.592 6.45275 26.896 6.86875 27.056C8.21275 27.568 9.47675 27.824 10.6608 27.824C11.8448 27.824 12.9808 27.248 14.0688 26.096C15.1888 24.912 15.7488 23.472 15.7488 21.776C15.7488 19.536 14.6288 17.968 12.3888 17.072C11.3008 16.624 10.0688 16.288 8.69275 16.064C5.84475 15.552 3.70075 14.704 2.26075 13.52C0.82075 12.304 0.10075 10.48 0.10075 8.048C0.10075 5.616 1.14075 3.712 3.22075 2.336C5.30075 0.927998 7.97275 0.223997 11.2368 0.223997ZM33.268 0.223997C35.348 0.223997 37.108 0.575997 38.548 1.28C40.02 1.984 40.756 2.88 40.756 3.968C40.756 4.448 40.628 4.864 40.372 5.216C40.148 5.568 39.796 5.744 39.316 5.744C38.868 5.744 37.876 5.392 36.34 4.688C34.804 3.952 33.396 3.584 32.116 3.584C30.868 3.584 29.572 3.984 28.228 4.784C26.884 5.584 26.212 6.56 26.212 7.712C26.212 9.28 27.028 10.432 28.66 11.168C29.876 11.712 31.62 12.208 33.892 12.656C36.164 13.072 38.02 13.952 39.46 15.296C40.9 16.608 41.62 18.608 41.62 21.296C41.62 25.392 40.388 28.416 37.924 30.368C36.548 31.456 34.596 32 32.068 32C29.572 32 27.076 31.312 24.58 29.936C22.948 29.072 22.132 28.208 22.132 27.344C22.132 27.024 22.26 26.672 22.516 26.288C22.804 25.904 23.188 25.584 23.668 25.328C24.148 25.072 24.58 25.04 24.964 25.232C25.38 25.392 26.036 25.696 26.932 26.144C27.828 26.592 28.484 26.896 28.9 27.056C30.244 27.568 31.508 27.824 32.692 27.824C33.876 27.824 35.012 27.248 36.1 26.096C37.22 24.912 37.78 23.472 37.78 21.776C37.78 19.536 36.66 17.968 34.42 17.072C33.332 16.624 32.1 16.288 30.724 16.064C27.876 15.552 25.732 14.704 24.292 13.52C22.852 12.304 22.132 10.48 22.132 8.048C22.132 5.616 23.172 3.712 25.252 2.336C27.332 0.927998 30.004 0.223997 33.268 0.223997Z" fill="#FDB196"/>
</svg>
