<svg width="47" height="33" viewBox="0 0 47 33" fill="none" xmlns="http://www.w3.org/2000/svg">
<path d="M16.8906 27.0703C16.8906 29.2544 14.7887 31.0234 12.1988 31.0234C9.60889 31.0234 7.50694 29.2544 7.50694 27.0703C7.50694 24.8862 9.60889 23.1172 12.1988 23.1172C14.7887 23.1172 16.8906 24.8862 16.8906 27.0703Z" fill="#fdb196"/>
<path fill-rule="evenodd" clip-rule="evenodd" d="M16.8906 7.30469V27.0703H15.0139V7.30469H16.8906Z" fill="#fdb196"/>
<path d="M15.0139 6.9489C15.0141 6.49214 15.1646 6.04956 15.4397 5.69643C15.7148 5.34329 16.0975 5.1014 16.5228 5.01187L22.153 3.82594C22.4252 3.76864 22.706 3.77564 22.9753 3.84643C23.2446 3.91721 23.4956 4.05003 23.7103 4.2353C23.925 4.42057 24.098 4.65368 24.2168 4.91785C24.3357 5.18201 24.3974 5.47065 24.3976 5.76297V9.28125L15.0139 11.2578V6.9489Z" fill="#fdb196"/>
<path d="M33.8628 25.6953C33.8628 27.8794 31.7609 29.6484 29.171 29.6484C26.5811 29.6484 24.4792 27.8794 24.4792 25.6953C24.4792 23.5112 26.5811 21.7422 29.171 21.7422C31.7609 21.7422 33.8628 23.5112 33.8628 25.6953Z" fill="#fdb196"/>
<path fill-rule="evenodd" clip-rule="evenodd" d="M33.8628 5.92969V25.6953H31.9861V5.92969H33.8628Z" fill="#fdb196"/>
<path d="M31.9861 5.5739C31.9864 5.11714 32.1368 4.67456 32.4119 4.32143C32.687 3.96829 33.0697 3.7264 33.495 3.63687L39.1252 2.45094C39.3974 2.39364 39.6782 2.40064 39.9475 2.47143C40.2168 2.54221 40.4678 2.67503 40.6825 2.8603C40.8972 3.04557 41.0702 3.27868 41.189 3.54285C41.3079 3.80701 41.3696 4.09565 41.3698 4.38797V7.90625L31.9861 9.88281V5.5739Z" fill="#fdb196"/>
</svg>
