<svg width="24" height="27" viewBox="0 0 24 27" fill="none" xmlns="http://www.w3.org/2000/svg">
<path d="M4.5 0C5.69347 0 6.83807 0.474106 7.68198 1.31802C8.5259 2.16193 9 3.30653 9 4.5V22.5C9 23.6935 8.5259 24.8381 7.68198 25.682C6.83807 26.5259 5.69347 27 4.5 27C3.30653 27 2.16193 26.5259 1.31802 25.682C0.474105 24.8381 2.51506e-08 23.6935 0 22.5V4.5C0 3.30653 0.474105 2.16193 1.31802 1.31802C2.16193 0.474106 3.30653 0 4.5 0ZM19.5 0C20.6935 0 21.8381 0.474106 22.682 1.31802C23.5259 2.16193 24 3.30653 24 4.5V22.5C24 23.6935 23.5259 24.8381 22.682 25.682C21.8381 26.5259 20.6935 27 19.5 27C18.3065 27 17.1619 26.5259 16.318 25.682C15.4741 24.8381 15 23.6935 15 22.5V4.5C15 3.30653 15.4741 2.16193 16.318 1.31802C17.1619 0.474106 18.3065 0 19.5 0Z" fill="white"/>
</svg>
