<svg width="28" height="27" viewBox="0 0 28 27" fill="none" xmlns="http://www.w3.org/2000/svg">
<path fill-rule="evenodd" clip-rule="evenodd" d="M24.1878 13.5008C24.1886 15.8204 23.3929 18.0699 21.9338 19.8731C20.4747 21.6764 18.4408 22.9239 16.1721 23.4072C13.9034 23.8904 11.5375 23.5801 9.47025 22.528C7.40297 21.4759 5.75962 19.7459 4.81505 17.6273L1.68527 18.8986C2.92598 21.7414 5.10763 24.0704 7.86343 25.4939C10.6192 26.9175 13.7811 27.3489 16.8175 26.7155C19.8539 26.0821 22.5797 24.4227 24.5366 22.0161C26.4934 19.6095 27.5621 16.6025 27.5628 13.5008C27.5629 10.6831 26.6815 7.93608 25.0419 5.64459C23.4024 3.35309 21.0869 1.63202 18.4201 0.722566C15.7533 -0.186883 12.8687 -0.239124 10.1707 0.573166C7.47271 1.38545 5.09648 3.02156 3.37504 5.25219V1.12564H0V10.1257L1.68752 11.8133H9.5626V8.43822H5.29206C6.40606 6.50696 8.12635 4.99739 10.186 4.14376C12.2456 3.29012 14.5294 3.14016 16.683 3.71715C18.8365 4.29413 20.7394 5.5658 22.0964 7.33481C23.4534 9.10382 24.1885 11.2713 24.1878 13.5008V13.5008Z" fill="#676161"/>
</svg>
