<svg width="73" height="59" viewBox="0 0 73 59" fill="none" xmlns="http://www.w3.org/2000/svg">
<path d="M20.075 29.5C25.1063 29.5 29.2 25.3642 29.2 20.2812C29.2 15.1983 25.1063 11.0625 20.075 11.0625C15.0437 11.0625 10.95 15.1983 10.95 20.2812C10.95 25.3642 15.0437 29.5 20.075 29.5ZM60.225 14.75H34.675C33.6667 14.75 32.85 15.5751 32.85 16.5938V33.1875H7.3V9.21875C7.3 8.20008 6.48331 7.375 5.475 7.375H1.825C0.816688 7.375 0 8.20008 0 9.21875V49.7812C0 50.7999 0.816688 51.625 1.825 51.625H5.475C6.48331 51.625 7.3 50.7999 7.3 49.7812V44.25H65.7V49.7812C65.7 50.7999 66.5167 51.625 67.525 51.625H71.175C72.1833 51.625 73 50.7999 73 49.7812V27.6562C73 20.5279 67.2809 14.75 60.225 14.75Z" fill="#fdb196"/>
</svg>
