<svg width="23" height="24" viewBox="0 0 23 24" fill="none" xmlns="http://www.w3.org/2000/svg">
<path d="M0 1.33322C0 0.979627 0.140464 0.640518 0.390491 0.390491C0.640518 0.140464 0.979627 0 1.33322 0C1.68681 0 2.02592 0.140464 2.27595 0.390491C2.52597 0.640518 2.66644 0.979627 2.66644 1.33322V9.9938L19.377 0.298641C20.8169 -0.535954 22.662 0.474626 22.662 2.15448V21.8434C22.662 23.5233 20.8169 24.5365 19.377 23.702L2.66644 14.0068V22.6647C2.66644 23.0183 2.52597 23.3574 2.27595 23.6074C2.02592 23.8575 1.68681 23.9979 1.33322 23.9979C0.979627 23.9979 0.640518 23.8575 0.390491 23.6074C0.140464 23.3574 0 23.0183 0 22.6647V1.33322Z" fill="white"/>
</svg>
